PathFileType	4	(X/Y/Z)	C:\Users\Biomechanik\SynologyDrive\AlexP\Athlete_03\Athlete_3_25_03_31\Deadlift_35kg_02\marker_experimental.trc
DataRate	CameraRate	NumFrames	NumMarkers	Units	OrigDataRate	OrigDataStartFrame	OrigNumFrames
200.000000	200.000000	4	55	mm	200.000000	0	1983
Frame#	Time	BL			BR			GLAB			RFHD			LFHD			C7			T6			SPINMOL			SPINM2			SPINM3			T12			BELTOL			BELT2			BELT3			SACROL			SACR2			SACR3			LTHOL			LTH2			LTH3			LSHAOL			LSHA2			LSHA3			LHEE			LTOE			LM5			RTHOL			RTH2			RTH3			RSHAOL			RSHA2			RSHA3			RHEE			RTOE			RM5			STRN			XIPH			LACR			LUAOL			LUA2			LUA3			LLAOL			LLA2			LLA3			LWRR			LWRU			RACR			RUAOL			RUA2			RUA3			RLAOL			RLA2			RLA3			RWRR			RWRU			
		X1	Y1	Z1	X2	Y2	Z2	X3	Y3	Z3	X4	Y4	Z4	X5	Y5	Z5	X6	Y6	Z6	X7	Y7	Z7	X8	Y8	Z8	X9	Y9	Z9	X10	Y10	Z10	X11	Y11	Z11	X12	Y12	Z12	X13	Y13	Z13	X14	Y14	Z14	X15	Y15	Z15	X16	Y16	Z16	X17	Y17	Z17	X18	Y18	Z18	X19	Y19	Z19	X20	Y20	Z20	X21	Y21	Z21	X22	Y22	Z22	X23	Y23	Z23	X24	Y24	Z24	X25	Y25	Z25	X26	Y26	Z26	X27	Y27	Z27	X28	Y28	Z28	X29	Y29	Z29	X30	Y30	Z30	X31	Y31	Z31	X32	Y32	Z32	X33	Y33	Z33	X34	Y34	Z34	X35	Y35	Z35	X36	Y36	Z36	X37	Y37	Z37	X38	Y38	Z38	X39	Y39	Z39	X40	Y40	Z40	X41	Y41	Z41	X42	Y42	Z42	X43	Y43	Z43	X44	Y44	Z44	X45	Y45	Z45	X46	Y46	Z46	X47	Y47	Z47	X48	Y48	Z48	X49	Y49	Z49	X50	Y50	Z50	X51	Y51	Z51	X52	Y52	Z52	X53	Y53	Z53	X54	Y54	Z54	X55	Y55	Z55	

1	0	2233.269775390625	220.9649505615236	366.2101440429691	211.7906341552734	223.2063903808594	385.1177062988282	1211.656982421875	1533.0537109375	431.1431274414065	1144.527099609375	1574.680908203125	404.7267150878909	1279.966186523438	1577.987060546875	399.3009948730471	1210.061889648438	1441.782836914062	163.1755523681643	1215.189819335938	1262.204956054688	114.2631912231448	1236.620727539062	1224.302124023438	111.2954483032229	1187.081420898438	1215.434814453125	107.2789688110354	1221.852905273438	1160.506103515625	121.0298309326174	1220.661743164062	1104.31396484375	137.7860260009768	1235.618896484375	1078.0478515625	119.5621795654299	1185.575561523438	1075.532470703125	121.6848602294924	1214.226440429688	1015.332763671875	116.8868560791018	1237.623901367188	961.0700683593751	118.5386505126955	1186.246215820312	959.2434692382814	121.227363586426	1212.50634765625	902.2706909179689	100.1161880493166	1399.598022460938	680.6640014648439	212.6127014160159	1372.216552734375	625.9519653320314	161.3241119384768	1386.512817382812	620.6873779296876	209.329528808594	1394.888427734375	326.0509338378907	183.4263305664065	1384.051147460938	266.1667480468751	131.9711456298831	1390.961547851562	264.9825744628907	181.4018859863284	1307.0732421875	68.6393356323243	106.946342468262	1309.382446289062	47.52865219116219	322.878845214844	1411.48828125	31.37581062316903	278.6685791015628	1030.428833007812	695.5276489257814	197.8353118896486	1019.320434570312	637.7722167968751	251.6850891113283	1036.634765625	634.3102416992189	205.1020507812502	1023.497314453125	344.9326477050782	164.2857055664064	1019.092712402344	272.6601257324219	195.3349456787111	1033.66748046875	284.6178894042969	149.5579071044924	1123.233276367188	62.20890426635749	111.2279052734377	1103.2041015625	47.69316101074226	324.8990173339846	1006.194091796875	38.8822097778321	269.4234008789064	1217.467163085938	1346.719604492188	330.8504333496096	1219.156127929688	1209.057250976562	360.368591308594	1392.726806640625	1397.90234375	236.2761077880862	1491.842407226562	1233.838623046875	241.782165527344	1508.5009765625	1170.120239257812	234.2261657714847	1485.142700195312	1179.607666015625	278.9128417968753	1525.88623046875	972.4115600585939	291.5374450683597	1510.9052734375	901.7758789062501	259.545837402344	1521.994506835938	913.1700439453126	307.1249694824222	1517.869262695312	815.1082153320314	343.5796508789065	1448.464965820312	829.9050903320314	383.2731628417972	1041.875732421875	1393.378784179688	256.6314697265627	947.4203491210936	1234.337890625	258.2210388183595	950.4468383789061	1175.212646484375	289.2139892578127	929.5013427734374	1172.595825195312	240.976287841797	920.6058959960936	956.5053100585938	303.5356750488283	907.3842163085936	911.9242553710938	368.4478759765627	924.8609008789061	897.1513671875	323.645477294922	924.2208251953124	822.2183227539062	375.4880676269533	999.6281738281249	820.0147094726564	405.0855407714845	
2	0.005	2233.270263671875	220.9653778076173	366.2102050781254	211.7887420654296	223.2085723876953	385.1185302734376	1211.68310546875	1532.989990234375	431.2519226074221	1144.569580078125	1574.637939453125	404.8593750000002	1280.000610351562	1577.925048828125	399.4273681640627	1210.068603515625	1441.833374023438	163.257034301758	1215.189208984375	1262.268310546875	114.2708511352541	1236.618774414062	1224.365844726562	111.2938232421877	1187.08056640625	1215.5029296875	107.2731933593752	1221.850952148438	1160.56591796875	120.9978637695315	1220.665649414062	1104.3525390625	137.736282348633	1235.634521484375	1078.111328125	119.481025695801	1185.5810546875	1075.575073242188	121.619697570801	1214.244506835938	1015.380126953125	116.817825317383	1237.635131835938	961.0866088867189	118.4511413574221	1186.2578125	959.2600708007814	121.1332626342776	1212.525024414062	902.2847900390626	100.0290222167971	1399.6171875	680.6663208007814	212.5376129150393	1372.220581054688	625.9488525390626	161.259948730469	1386.521118164062	620.6971435546876	209.2588653564456	1394.88818359375	326.0528259277345	183.3918304443362	1384.051147460938	266.1604003906251	131.9452056884768	1390.9638671875	264.9793090820313	181.3763427734378	1307.075073242188	68.63861846923837	106.9451599121096	1309.382934570312	47.52985763549813	322.8781433105471	1411.485229492188	31.37769317626962	278.6673278808597	1030.43212890625	695.5314331054689	197.7511901855471	1019.322204589844	637.7807006835939	251.6058654785158	1036.635131835938	634.3160400390626	205.0296173095705	1023.49169921875	344.9275817871094	164.2451477050783	1019.090393066406	272.6593017578126	195.3083343505861	1033.6611328125	284.6124572753907	149.5283660888674	1123.232177734375	62.20458602905281	111.2250442504885	1103.203002929688	47.69295120239265	324.8982238769534	1006.198059082031	38.88525772094733	269.4168701171877	1217.466186523438	1346.710205078125	330.8913574218752	1219.1474609375	1209.038208007812	360.3639221191409	1392.733764648438	1397.909057617188	236.3331451416018	1491.83251953125	1233.838134765625	241.8053283691409	1508.480834960938	1170.116943359375	234.2371673583987	1485.121826171875	1179.5966796875	278.939636230469	1525.836059570312	972.4018554687501	291.5011901855472	1510.859985351562	901.7614746093751	259.5094299316409	1521.950561523438	913.1500244140626	307.0945129394534	1517.812622070312	815.0833740234376	343.5345764160159	1448.406616210938	829.9078979492189	383.2456054687503	1041.895385742188	1393.40283203125	256.6985778808595	947.4172973632811	1234.369506835938	258.2464904785158	950.4365844726561	1175.240478515625	289.2344360351564	929.4733276367186	1172.63134765625	240.9864807128908	920.5739746093749	956.5320434570312	303.4936523437502	907.3615112304686	911.9404296875	368.4057617187502	924.8189697265624	897.1758422851562	323.5944213867189	924.1754760742186	822.22607421875	375.4158630371095	999.5791625976561	820.0088500976564	405.006805419922	
3	0.01	2233.2705078125	220.9656219482423	366.2100219726566	211.787368774414	223.2100524902344	385.1192626953126	1211.708129882812	1532.925048828125	431.3624572753909	1144.615600585938	1574.593017578125	404.9931640625002	1280.034301757812	1577.862060546875	399.5556945800784	1210.075805664062	1441.885009765625	163.3404235839846	1215.189086914062	1262.332153320312	114.2783432006838	1236.617431640625	1224.430297851562	111.292419433594	1187.080444335938	1215.571899414062	107.267532348633	1221.849609375	1160.626342773438	120.9658126831057	1220.670288085938	1104.390747070312	137.6862792968752	1235.649780273438	1078.176025390625	119.4086532592776	1185.586791992188	1075.61669921875	121.5530929565432	1214.262329101562	1015.427062988281	116.7459869384768	1237.646484375	961.1025390625001	118.3614883422854	1186.270385742188	959.2762451171876	121.0360260009768	1212.543212890625	902.2968750000001	99.94152832031273	1399.641235351562	680.6761474609376	212.4546203613284	1372.22607421875	625.9455566406251	161.1950225830081	1386.52587890625	620.7041625976564	209.1945800781253	1394.887817382812	326.0548095703126	183.3567504882815	1384.05126953125	266.1545715332032	131.9182739257815	1390.966064453125	264.9762573242188	181.3503112792971	1307.076782226562	68.6375274658204	106.9437789916995	1309.383666992188	47.53095245361336	322.8770141601565	1411.481811523438	31.37871170043954	278.6663818359378	1030.43505859375	695.5337524414064	197.6670532226564	1019.324279785156	637.7886962890626	251.5278472900393	1036.635009765625	634.3211059570314	204.9584197998049	1023.48583984375	344.9219360351563	164.2060241699221	1019.087890625	272.6581726074219	195.2827148437502	1033.654296875	284.6068725585938	149.4994506835939	1123.230712890625	62.20062255859382	111.2219238281252	1103.201782226562	47.69282913208015	324.8973693847659	1006.202331542969	38.88714218139655	269.4115600585939	1217.46484375	1346.69921875	330.9336242675784	1219.13916015625	1209.018676757812	360.3594970703127	1392.74072265625	1397.91552734375	236.3917083740237	1491.822998046875	1233.837280273438	241.8284606933597	1508.45947265625	1170.11328125	234.2486877441409	1485.101318359375	1179.584716796875	278.9660644531253	1525.784912109375	972.3914794921876	291.4641723632815	1510.8134765625	901.7470703125001	259.4731750488284	1521.9052734375	913.1292114257814	307.063903808594	1517.75439453125	815.0579223632814	343.4888610839847	1448.345458984375	829.9013061523439	383.2110900878909	1041.908203125	1393.427490234375	256.7683410644533	947.4143066406249	1234.401611328125	258.2727050781252	950.4207153320311	1175.268188476562	289.2554016113283	929.4396972656249	1172.66650390625	240.9964904785158	920.5413818359374	956.55859375	303.4515686035158	907.3345947265624	911.9572143554688	368.3652954101564	924.7748413085936	897.1988525390625	323.5429687500002	924.1280517578124	822.2340087890625	375.3431701660158	999.5273437499999	820.0042724609376	404.9277954101564	
4	0.015	2233.2705078125	220.9657287597658	366.2095642089848	211.7865600585937	223.2107086181641	385.1198425292969	1211.731811523438	1532.859008789062	431.4749145507815	1144.664306640625	1574.5458984375	405.1282653808596	1280.06689453125	1577.798217773438	399.686218261719	1210.08349609375	1441.937622070312	163.425720214844	1215.189331054688	1262.396484375	114.2858352661135	1236.616577148438	1224.495361328125	111.2911376953127	1187.080810546875	1215.6416015625	107.2620239257815	1221.848510742188	1160.687377929688	120.9337692260744	1220.675659179688	1104.428588867188	137.6357116699221	1235.664306640625	1078.241455078125	119.3443832397463	1185.592651367188	1075.657470703125	121.4852600097658	1214.27978515625	1015.473449707031	116.671585083008	1237.657958984375	961.1176757812501	118.2696456909182	1186.284301757812	959.2921752929689	120.9356079101565	1212.560546875	902.3072509765626	99.85371398925804	1399.668090820312	680.6921997070314	212.3659362792971	1372.233642578125	625.9420166015626	161.1284179687503	1386.526611328125	620.7082519531251	209.1368560791018	1394.887329101562	326.0568847656251	183.3210449218753	1384.051147460938	266.1492004394532	131.8903808593753	1390.96826171875	264.9733886718751	181.3237915039065	1307.078247070312	68.63603210449227	106.9421768188479	1309.384521484375	47.53199005126961	322.8755493164065	1411.478393554688	31.37891578674325	278.6658020019534	1030.437866210938	695.5344848632814	197.5827636718752	1019.326599121094	637.7961425781251	251.4509582519533	1036.63427734375	634.3253784179689	204.8881683349611	1023.479919433594	344.9156188964844	164.1682739257814	1019.085327148438	272.6567077636719	195.2580413818361	1033.64697265625	284.6010742187501	149.4711151123049	1123.228393554688	62.19697952270515	111.2185516357424	1103.200561523438	47.69288253784187	324.8965148925784	1006.206787109375	38.88765335083014	269.4078674316408	1217.462890625	1346.686157226562	330.9773254394534	1219.131225585938	1208.99853515625	360.3552856445315	1392.747680664062	1397.921630859375	236.4521331787112	1491.813842773438	1233.836059570312	241.8518066406253	1508.437133789062	1170.109741210938	234.2609558105472	1485.081298828125	1179.572265625	278.9918518066409	1525.7333984375	972.3801269531251	291.4270935058597	1510.765747070312	901.7327880859376	259.4371032714847	1521.85888671875	913.1078491210939	307.0332031250003	1517.6943359375	815.0319824218751	343.442565917969	1448.281982421875	829.8849487304689	383.1688232421878	1041.914306640625	1393.452270507812	256.8407287597658	947.4112548828124	1234.434448242188	258.3000488281252	950.3986816406249	1175.295532226562	289.2768859863283	929.4015502929686	1172.701049804688	241.0060272216799	920.5079956054686	956.5849609375	303.4092712402345	907.3030395507811	911.9742431640625	368.3262634277345	924.7287597656249	897.2202758789062	323.4911499023439	924.0784912109374	822.2420654296875	375.2700195312502	999.4729614257811	820.0007324218751	404.8486633300783	
